<?xml version="1.0" encoding="UTF-8"?> <!-- Generator: Adobe Illustrator 25.2.0, SVG Export Plug-In . SVG Version: 6.00 Build 0) --> <svg xmlns="http://www.w3.org/2000/svg" xmlns:xlink="http://www.w3.org/1999/xlink" version="1.1" id="Layer_1" x="0px" y="0px" viewBox="0 0 429.6 142" style="enable-background:new 0 0 429.6 142;" xml:space="preserve"> <style type="text/css"> .st0{fill:none;stroke:#484949;stroke-width:0.5669;stroke-dasharray:1.9842;} .st1{fill:#2D76FF;stroke:#464646;stroke-width:0.5669;} .st2{fill:#0039A6;} .st3{fill:#2D76FF;} .st4{fill:#C5C5C5;} .st5{fill:#FFFFFF;} </style> <g id="Layer_3"> <g> <path class="st0" d="M126.3,77.9V58.8c0-2.4,1.9-4.3,4.3-4.3h169c2.4,0,4.3,1.9,4.3,4.3v19.1"></path> </g> <g> <path class="st1" d="M129.8,81.3c0,1.9-1.6,3.5-3.5,3.5c-1.9,0-3.5-1.6-3.5-3.5s1.6-3.5,3.5-3.5C128.2,77.8,129.8,79.4,129.8,81.3 z"></path> </g> <line class="st0" x1="214.9" y1="29.1" x2="214.9" y2="54.5"></line> <line class="st0" x1="214.9" y1="54.4" x2="214.9" y2="81.3"></line> <g> <path class="st1" d="M218.4,81.3c0,1.9-1.6,3.5-3.5,3.5s-3.5-1.6-3.5-3.5s1.6-3.5,3.5-3.5C216.8,77.8,218.4,79.4,218.4,81.3z"></path> </g> <g> <path class="st0" d="M38.2,79.7V58.8c0-2.4,1.9-4.3,4.3-4.3h86.7"></path> </g> <g> <g> <path class="st1" d="M41.6,81.3c0,1.9-1.6,3.5-3.5,3.5s-3.5-1.6-3.5-3.5s1.6-3.5,3.5-3.5C40.1,77.8,41.6,79.4,41.6,81.3z"></path> </g> </g> <g> <path class="st0" d="M390.7,79.7V58.8c0-2.4-1.9-4.3-4.3-4.3h-84.8"></path> </g> <g> <g> <path class="st1" d="M387.3,81.3c0,1.9,1.6,3.5,3.5,3.5s3.5-1.6,3.5-3.5s-1.6-3.5-3.5-3.5S387.3,79.4,387.3,81.3z"></path> </g> </g> <g> <path class="st1" d="M307.3,81.3c0,1.9-1.6,3.5-3.5,3.5s-3.5-1.6-3.5-3.5s1.6-3.5,3.5-3.5S307.3,79.4,307.3,81.3z"></path> </g> </g> <g id="Layer_10"> <g> <g> <g> <g> <g> <path class="st2" d="M267,25.4c0,2.4-1.9,4.3-4.3,4.3h-95.2c-2.4,0-4.3-1.9-4.3-4.3V8.3c0-2.4,1.9-4.3,4.3-4.3h95.2 c2.3,0,4.3,2,4.3,4.3V25.4z"></path> </g> <g> <path class="st3" d="M267,22.4c0,2.4-1.9,4.3-4.3,4.3h-95.2c-2.4,0-4.3-1.9-4.3-4.3V5.3c0-2.4,1.9-4.3,4.3-4.3h95.2 c2.4,0,4.3,1.9,4.3,4.3V22.4z"></path> </g> </g> </g> </g> </g> <g> <g> <g> <g> <path class="st2" d="M340.7,130.1c0,2.9-1.9,5.2-4.3,5.2h-64.9c-2.4,0-4.3-2.4-4.3-5.2V98.2c0-2.9,1.9-5.2,4.3-5.2h64.9 c2.4,0,4.3,2.4,4.3,5.2V130.1z"></path> </g> <g> <path class="st4" d="M340.7,126.4c0,2.9-1.9,5.2-4.3,5.2h-64.9c-2.4,0-4.3-2.4-4.3-5.2V94.5c0-2.9,1.9-5.2,4.3-5.2h64.9 c2.4,0,4.3,2.4,4.3,5.2V126.4z"></path> </g> </g> </g> </g> <g> <g> <g> <g> <path class="st2" d="M163,130.1c0,2.9-1.9,5.2-4.3,5.2H93.8c-2.4,0-4.3-2.4-4.3-5.2V98.2c0-2.9,1.9-5.2,4.3-5.2h64.9 c2.4,0,4.3,2.4,4.3,5.2L163,130.1L163,130.1z"></path> </g> <g> <path class="st4" d="M163,126.4c0,2.9-1.9,5.2-4.3,5.2H93.8c-2.4,0-4.3-2.4-4.3-5.2V94.5c0-2.9,1.9-5.2,4.3-5.2h64.9 c2.4,0,4.3,2.4,4.3,5.2L163,126.4L163,126.4z"></path> </g> </g> </g> </g> <g> <g> <g> <g> <path class="st2" d="M74.6,130.1c0,2.9-1.9,5.2-4.3,5.2H5.4c-2.4,0-4.3-2.4-4.3-5.2V98.2C1.1,95.3,3,93,5.4,93h64.9 c2.4,0,4.3,2.4,4.3,5.2C74.6,98.2,74.6,130.1,74.6,130.1z"></path> </g> <g> <path class="st4" d="M74.6,126.4c0,2.9-1.9,5.2-4.3,5.2H5.4c-2.4,0-4.3-2.4-4.3-5.2V94.5c0-2.9,1.9-5.2,4.3-5.2h64.9 c2.4,0,4.3,2.4,4.3,5.2C74.6,94.5,74.6,126.4,74.6,126.4z"></path> </g> </g> </g> </g> <g> <g> <g> <g> <path class="st2" d="M428.9,130.1c0,2.9-1.9,5.2-4.3,5.2h-64.9c-2.4,0-4.3-2.4-4.3-5.2V98.2c0-2.9,1.9-5.2,4.3-5.2h64.9 c2.4,0,4.3,2.4,4.3,5.2V130.1z"></path> </g> <g> <path class="st4" d="M428.9,126.4c0,2.9-1.9,5.2-4.3,5.2h-64.9c-2.4,0-4.3-2.4-4.3-5.2V94.5c0-2.9,1.9-5.2,4.3-5.2h64.9 c2.4,0,4.3,2.4,4.3,5.2V126.4z"></path> </g> </g> </g> </g> </g> <g> <g> <g> <g> <path class="st2" d="M252.8,131.7c0,2-1.9,3.6-4.3,3.6h-64.9c-2.4,0-4.3-1.6-4.3-3.6V96.6c0-2,1.9-3.6,4.3-3.6h64.9 c2.4,0,4.3,1.6,4.3,3.6V131.7z"></path> </g> <g> <path class="st4" d="M252.8,127.6c0,2-1.9,3.6-4.3,3.6h-64.9c-2.4,0-4.3-1.6-4.3-3.6V92.9c0-2,1.9-3.6,4.3-3.6h64.9 c2.4,0,4.3,1.6,4.3,3.6V127.6z"></path> </g> </g> </g> </g> <g> <path class="st5" d="M199.3,21.6v-5.8l-4.7-8.3V6.6h3.1l3.4,6.3l0,0l3.2-6.3h2.6v0.9l-4.4,8.2v5.9H199.3z"></path> <path class="st5" d="M207,14.1c0-5,3.4-7.7,7.2-7.7s7.2,2.7,7.2,7.7s-3.4,7.7-7.2,7.7S207,19,207,14.1z M218,14.1 c0-3.7-1.6-5.4-3.8-5.4s-3.8,1.7-3.8,5.4s1.6,5.3,3.8,5.3C216.4,19.4,218,17.9,218,14.1z"></path> <path class="st5" d="M232.5,15.8V6.6h2.8v9.1c0,3.9-1.6,6-5.8,6c-4.1,0-6.2-2.2-6.2-6V6.6h3.3v9.2c0,2.8,1.1,3.5,3,3.5 S232.5,18.6,232.5,15.8z"></path> </g> <g> <path class="st2" d="M382.6,102.6h2.3c1.8,0,2.8,0.7,2.8,2.2s-1,2.2-2.8,2.2h-0.8v2.5h-1.6v-6.9 C382.5,102.6,382.6,102.6,382.6,102.6z M384.1,106.1h0.7c0.9,0,1.2-0.4,1.2-1.2c0-0.7-0.3-1.1-1.2-1.1h-0.7V106.1z"></path> <path class="st2" d="M389.5,107.2c0.1,1,0.6,1.3,1.4,1.3c0.6,0,1-0.2,1.4-0.4h0.4v1c-0.4,0.2-1,0.5-2.1,0.5c-1.7,0-2.7-1-2.7-2.7 s1.1-2.7,2.6-2.7s2.4,0.8,2.4,2.6c0,0.2,0,0.4,0,0.4L389.5,107.2z M389.5,106.5h2c0-0.9-0.3-1.2-0.9-1.2 C390.1,105.2,389.6,105.5,389.5,106.5z"></path> <path class="st2" d="M394.9,107.2c0.1,1,0.6,1.3,1.4,1.3c0.6,0,1-0.2,1.4-0.4h0.4v1c-0.4,0.2-1,0.5-2.1,0.5c-1.7,0-2.7-1-2.7-2.7 s1.1-2.7,2.6-2.7s2.4,0.8,2.4,2.6c0,0.2,0,0.4,0,0.4L394.9,107.2z M395,106.5h2c0-0.9-0.3-1.2-0.9-1.2 C395.5,105.2,395.1,105.5,395,106.5z"></path> <path class="st2" d="M400.6,105.8v3.8h-1.5v-5.2h1c0.2,0,0.4,0.1,0.4,0.6c0.3-0.3,0.8-0.7,1.5-0.7c0.1,0,0.2,0,0.3,0v1.1h-0.2 C401.4,105.5,400.9,105.7,400.6,105.8z"></path> <path class="st2" d="M373.4,114.6h1.8l2.6,4.5l0,0v-4.5h1.3v7h-1.4l-2.9-5.1l0,0v5.1h-1.3L373.4,114.6L373.4,114.6z"></path> <path class="st2" d="M381.4,119.2c0.1,1,0.6,1.3,1.4,1.3c0.6,0,1-0.2,1.4-0.4h0.4v1c-0.4,0.2-1,0.5-2.1,0.5c-1.7,0-2.7-1-2.7-2.7 s1.1-2.7,2.6-2.7s2.4,0.8,2.4,2.6c0,0.2,0,0.4,0,0.4L381.4,119.2z M381.5,118.4h2c0-0.9-0.3-1.2-0.9-1.2 C382,117.2,381.6,117.4,381.5,118.4z"></path> <path class="st2" d="M385.2,116.4h0.6v-1.4h1.5v1.4h1.1v1h-1.1v2.7c0,0.5,0.2,0.6,0.7,0.6h0.4v0.9c-0.2,0.1-0.5,0.1-0.9,0.1 c-1,0-1.6-0.4-1.6-1.5v-2.9h-0.6v-0.9C385.3,116.3,385.2,116.3,385.2,116.4z"></path> <path class="st2" d="M388.9,116.7v-0.4h1.4l0.9,3.3l0,0l1-3.3h1.1l1,3.3l0,0l0.9-3.3h1.2v0.4l-1.5,4.9h-1.3l-1-3.3l0,0l-1,3.3h-1.3 L388.9,116.7z"></path> <path class="st2" d="M396.7,119c0-1.7,1.2-2.7,2.7-2.7s2.7,1,2.7,2.7s-1.2,2.7-2.7,2.7S396.7,120.7,396.7,119z M400.6,119 c0-1.1-0.5-1.7-1.2-1.7s-1.2,0.6-1.2,1.7c0,1.1,0.5,1.6,1.2,1.6S400.6,120.1,400.6,119z"></path> <path class="st2" d="M404.3,117.8v3.8h-1.5v-5.2h1c0.2,0,0.4,0.1,0.4,0.6c0.3-0.3,0.8-0.7,1.5-0.7c0.1,0,0.2,0,0.3,0v1.1h-0.2 C405.1,117.5,404.6,117.7,404.3,117.8z"></path> <path class="st2" d="M408.2,118.5l1.9-2.1h1.2v0.4l-1.5,1.7l1.8,2.8v0.4h-1.3l-1.4-2.2l-0.5,0.6v1.6h-1.5v-7h0.9 c0.5,0,0.6,0.1,0.6,0.8v3C408.4,118.5,408.2,118.5,408.2,118.5z"></path> </g> <g> <path class="st2" d="M116,109.6v-5.9h-1.9v-1.1h5.4v1.1h-1.9v5.9H116z"></path> <path class="st2" d="M122.9,108.3v-4h1.5v5.2h-1c-0.2,0-0.4-0.1-0.4-0.5c-0.5,0.3-1.2,0.6-1.8,0.6c-0.9,0-1.5-0.3-1.5-1.4v-3.9h1.5 v3.5c0,0.6,0.3,0.7,0.7,0.7C122.2,108.6,122.6,108.4,122.9,108.3z"></path> <path class="st2" d="M125.1,104.3h0.6v-1.4h1.5v1.4h1.1v1h-1.1v2.7c0,0.5,0.2,0.6,0.7,0.6h0.4v0.9c-0.2,0.1-0.5,0.1-0.9,0.1 c-1,0-1.6-0.4-1.6-1.5v-2.9h-0.6L125.1,104.3L125.1,104.3z"></path> <path class="st2" d="M128.7,106.9c0-1.7,1.2-2.7,2.7-2.7s2.7,1,2.7,2.7s-1.2,2.7-2.7,2.7C129.9,109.6,128.7,108.6,128.7,106.9z M132.6,106.9c0-1.1-0.5-1.7-1.2-1.7s-1.2,0.6-1.2,1.7c0,1.1,0.5,1.6,1.2,1.6S132.6,108.1,132.6,106.9z"></path> <path class="st2" d="M136.3,105.8v3.8h-1.5v-5.2h1c0.2,0,0.4,0.1,0.4,0.6c0.3-0.3,0.8-0.7,1.5-0.7c0.1,0,0.2,0,0.3,0v1.1h-0.2 C137.1,105.4,136.6,105.6,136.3,105.8z"></path> <path class="st2" d="M107.2,114.6h1.8l2.6,4.5l0,0v-4.5h1.3v7h-1.4l-2.9-5.1l0,0v5.1h-1.3L107.2,114.6L107.2,114.6z"></path> <path class="st2" d="M115.2,119.2c0.1,1,0.6,1.3,1.4,1.3c0.6,0,1-0.2,1.4-0.4h0.4v1c-0.4,0.2-1,0.5-2.1,0.5c-1.7,0-2.7-1-2.7-2.7 s1.1-2.7,2.6-2.7s2.4,0.8,2.4,2.6c0,0.2,0,0.4,0,0.4H115.2z M115.3,118.3h2c0-0.9-0.3-1.2-0.9-1.2 C115.8,117.1,115.4,117.3,115.3,118.3z"></path> <path class="st2" d="M119,116.3h0.6v-1.4h1.5v1.4h1.1v1h-1.1v2.7c0,0.5,0.2,0.6,0.7,0.6h0.4v0.9c-0.2,0.1-0.5,0.1-0.9,0.1 c-1,0-1.6-0.4-1.6-1.5v-2.9h-0.6L119,116.3L119,116.3z"></path> <path class="st2" d="M122.7,116.6v-0.4h1.4l0.9,3.3l0,0l1-3.3h1.1l1,3.3l0,0l0.9-3.3h1.2v0.4l-1.5,4.9h-1.3l-1-3.3l0,0l-1,3.3h-1.3 L122.7,116.6z"></path> <path class="st2" d="M130.5,118.9c0-1.7,1.2-2.7,2.7-2.7s2.7,1,2.7,2.7s-1.2,2.7-2.7,2.7S130.5,120.6,130.5,118.9z M134.4,118.9 c0-1.1-0.5-1.7-1.2-1.7s-1.2,0.6-1.2,1.7c0,1.1,0.5,1.6,1.2,1.6S134.4,120.1,134.4,118.9z"></path> <path class="st2" d="M138.1,117.8v3.8h-1.5v-5.2h1c0.2,0,0.4,0.1,0.4,0.6c0.3-0.3,0.8-0.7,1.5-0.7c0.1,0,0.2,0,0.3,0v1.1h-0.2 C138.9,117.4,138.4,117.6,138.1,117.8z"></path> <path class="st2" d="M142,118.4l1.9-2.1h1.2v0.4l-1.5,1.7l1.8,2.8v0.4h-1.3l-1.4-2.2l-0.5,0.6v1.6h-1.5v-7h0.9 c0.5,0,0.6,0.1,0.6,0.8v3C142.2,118.5,142,118.5,142,118.4z"></path> </g> <g> <path class="st2" d="M198.6,109.2v-1.2h0.5c0.3,0.3,0.8,0.6,1.7,0.6c0.8,0,1.3-0.3,1.3-0.9c0-0.7-0.7-0.8-1.5-1.1 c-1.3-0.4-1.9-0.9-1.9-2.1c0-1.4,1-2,2.4-2c0.8,0,1.5,0.2,1.9,0.5v1.1h-0.5c-0.4-0.3-0.8-0.5-1.4-0.5c-0.8,0-1.2,0.2-1.2,0.8 s0.5,0.7,1.3,0.9c1.5,0.4,2.2,0.9,2.2,2.2c0,1.4-0.9,2.1-2.6,2.1C199.8,109.8,199.1,109.6,198.6,109.2z"></path> <path class="st2" d="M203.8,104.4h0.6V103h1.5v1.4h1.1v1h-1.1v2.7c0,0.5,0.2,0.6,0.7,0.6h0.4v0.9c-0.2,0.1-0.5,0.1-0.9,0.1 c-1,0-1.6-0.4-1.6-1.5v-2.9h-0.6L203.8,104.4L203.8,104.4z"></path> <path class="st2" d="M211,108.4v-4h1.5v5.2h-1c-0.2,0-0.4-0.1-0.4-0.5c-0.5,0.3-1.2,0.6-1.8,0.6c-0.9,0-1.5-0.3-1.5-1.4v-3.9h1.5 v3.5c0,0.6,0.3,0.7,0.7,0.7C210.2,108.6,210.6,108.6,211,108.4z"></path> <path class="st2" d="M217,109.1c-0.3,0.4-0.8,0.7-1.5,0.7c-1.2,0-2.1-0.9-2.1-2.6c0-2.1,1.1-2.8,2.2-2.8c0.7,0,1,0.2,1.4,0.4v-2.1 h0.9c0.5,0,0.6,0.1,0.6,0.8v6.2h-1C217.1,109.6,217.1,109.6,217,109.1z M217,108.2v-2.5c-0.2-0.2-0.5-0.3-0.9-0.3 c-0.6,0-1.2,0.3-1.2,1.6c0,1.2,0.3,1.7,1,1.7C216.2,108.8,216.6,108.6,217,108.2z"></path> <path class="st2" d="M220.8,107.3c0.1,1,0.6,1.3,1.4,1.3c0.6,0,1-0.2,1.4-0.4h0.4v1c-0.4,0.2-1,0.5-2.1,0.5c-1.7,0-2.7-1-2.7-2.7 s1.1-2.7,2.6-2.7s2.4,0.8,2.4,2.6c0,0.2,0,0.4,0,0.4L220.8,107.3z M220.8,106.6h2c0-0.9-0.3-1.2-0.9-1.2 C221.2,105.2,220.9,105.6,220.8,106.6z"></path> <path class="st2" d="M226.4,105.1c0.5-0.4,1.2-0.6,1.9-0.6c0.8,0,1.4,0.3,1.4,1.5v3.9h-1.5v-3.5c0-0.5-0.2-0.7-0.6-0.7 c-0.4,0-0.9,0.1-1.2,0.2v3.9H225v-5.2h1C226.1,104.4,226.2,104.6,226.4,105.1z"></path> <path class="st2" d="M230.4,104.4h0.6V103h1.5v1.4h1.1v1h-1.1v2.7c0,0.5,0.2,0.6,0.7,0.6h0.4v0.9c-0.2,0.1-0.5,0.1-0.9,0.1 c-1,0-1.6-0.4-1.6-1.5v-2.9h-0.6L230.4,104.4L230.4,104.4z"></path> <path class="st2" d="M198.4,121.1v-1.2h0.5c0.3,0.3,0.8,0.6,1.7,0.6c0.8,0,1.3-0.3,1.3-0.9c0-0.7-0.7-0.8-1.5-1.1 c-1.3-0.4-1.9-0.9-1.9-2.1c0-1.4,1-2,2.4-2c0.8,0,1.5,0.2,1.9,0.5v1.1h-0.5c-0.4-0.3-0.8-0.5-1.4-0.5c-0.8,0-1.2,0.2-1.2,0.8 c0,0.6,0.5,0.7,1.3,0.9c1.5,0.4,2.2,0.9,2.2,2.2c0,1.4-0.9,2.1-2.6,2.1C199.6,121.8,199,121.6,198.4,121.1z"></path> <path class="st2" d="M207.4,120.3v-4h1.5v5.2h-1c-0.2,0-0.4-0.1-0.4-0.5c-0.5,0.3-1.2,0.6-1.8,0.6c-0.9,0-1.5-0.3-1.5-1.4v-3.9h1.5 v3.5c0,0.6,0.3,0.7,0.7,0.7C206.6,120.6,207.1,120.6,207.4,120.3z"></path> <path class="st2" d="M209.6,119.1c0-1.7,1.2-2.7,2.8-2.7c0.8,0,1.3,0.2,1.6,0.4v1.1h-0.6c-0.2-0.2-0.6-0.4-1-0.4 c-0.8,0-1.3,0.6-1.3,1.7c0,1.1,0.5,1.6,1.3,1.6c0.6,0,0.9-0.2,1.2-0.4h0.5v1c-0.3,0.2-0.9,0.5-1.7,0.5 C210.6,121.8,209.6,120.8,209.6,119.1z"></path> <path class="st2" d="M214.6,119.1c0-1.7,1.2-2.7,2.8-2.7c0.8,0,1.3,0.2,1.6,0.4v1.1h-0.6c-0.2-0.2-0.6-0.4-1-0.4 c-0.8,0-1.3,0.6-1.3,1.7c0,1.1,0.5,1.6,1.3,1.6c0.6,0,0.9-0.2,1.2-0.4h0.5v1c-0.3,0.2-0.9,0.5-1.7,0.5 C215.6,121.8,214.6,120.8,214.6,119.1z"></path> <path class="st2" d="M221.1,119.3c0.1,1,0.6,1.3,1.4,1.3c0.6,0,1-0.2,1.4-0.4h0.4v1c-0.4,0.2-1,0.5-2.1,0.5c-1.7,0-2.7-1-2.7-2.7 s1.1-2.7,2.6-2.7s2.4,0.8,2.4,2.6c0,0.2,0,0.4,0,0.4L221.1,119.3z M221.1,118.4h2c0-0.9-0.3-1.2-0.9-1.2 C221.6,117.2,221.1,117.4,221.1,118.4z"></path> <path class="st2" d="M225.1,121.2v-1.1h0.5c0.2,0.2,0.7,0.4,1.3,0.4s0.9-0.2,0.9-0.5s-0.2-0.5-0.9-0.6c-1.1-0.1-1.8-0.6-1.8-1.6 c0-1.1,0.8-1.6,2.1-1.6c0.8,0,1.2,0.1,1.6,0.4v1.1h-0.4c-0.2-0.2-0.7-0.3-1.2-0.3c-0.6,0-0.8,0.2-0.8,0.5s0.3,0.4,1,0.5 c1.2,0.2,1.8,0.6,1.8,1.6s-0.7,1.7-2.2,1.7C226,121.8,225.5,121.6,225.1,121.2z"></path> <path class="st2" d="M229.6,121.2v-1.1h0.5c0.2,0.2,0.7,0.4,1.3,0.4s0.9-0.2,0.9-0.5s-0.2-0.5-0.9-0.6c-1.1-0.1-1.8-0.6-1.8-1.6 c0-1.1,0.8-1.6,2.1-1.6c0.8,0,1.2,0.1,1.6,0.4v1.1H233c-0.2-0.2-0.7-0.3-1.2-0.3c-0.6,0-0.8,0.2-0.8,0.5s0.3,0.4,1,0.5 c1.2,0.2,1.8,0.6,1.8,1.6s-0.7,1.7-2.2,1.7C230.6,121.8,230.1,121.6,229.6,121.2z"></path> </g> <g> <path class="st2" d="M288.9,106.1c0-2.2,1.4-3.6,3.5-3.6c1,0,1.5,0.2,2,0.5v1.2h-0.6c-0.3-0.3-0.7-0.5-1.4-0.5 c-1.2,0-1.9,0.8-1.9,2.4c0,1.7,0.6,2.5,1.8,2.5c0.8,0,1.3-0.3,1.7-0.7h0.5v1.1c-0.5,0.4-1.3,0.7-2.2,0.7 C290.3,109.6,288.9,108.3,288.9,106.1z"></path> <path class="st2" d="M298.4,109.1c-0.4,0.4-0.9,0.6-1.5,0.6c-1,0-1.7-0.5-1.7-1.6c0-1.1,0.9-1.6,2.1-1.6c0.4,0,0.7,0,1,0.1v-0.5 c0-0.5-0.3-0.7-1-0.7c-0.5,0-1,0.2-1.4,0.4h-0.4v-1c0.5-0.2,1.1-0.4,2-0.4c1.4,0,2.2,0.5,2.2,1.7v3.6h-0.6 C298.7,109.6,298.5,109.4,298.4,109.1z M298.3,107.3c-0.2,0-0.5-0.1-0.7-0.1c-0.6,0-1,0.2-1,0.7s0.3,0.7,0.8,0.7 c0.4,0,0.7-0.2,0.9-0.4L298.3,107.3L298.3,107.3z"></path> <path class="st2" d="M302.3,105.8v3.8h-1.5v-5.2h1c0.2,0,0.4,0.1,0.4,0.6c0.3-0.3,0.8-0.7,1.5-0.7c0.1,0,0.2,0,0.3,0v1.1h-0.2 C303.1,105.4,302.6,105.6,302.3,105.8z"></path> <path class="st2" d="M305.8,107.2c0.1,1,0.6,1.3,1.4,1.3c0.6,0,1-0.2,1.4-0.4h0.4v1c-0.4,0.2-1,0.5-2.1,0.5c-1.7,0-2.7-1-2.7-2.7 s1.1-2.7,2.6-2.7s2.4,0.8,2.4,2.6c0,0.2,0,0.4,0,0.4H305.8z M305.9,106.4h2c0-0.9-0.3-1.2-0.9-1.2 C306.4,105.1,306,105.4,305.9,106.4z"></path> <path class="st2" d="M311.3,107.2c0.1,1,0.6,1.3,1.4,1.3c0.6,0,1-0.2,1.4-0.4h0.4v1c-0.4,0.2-1,0.5-2.1,0.5c-1.7,0-2.7-1-2.7-2.7 s1.1-2.7,2.6-2.7s2.4,0.8,2.4,2.6c0,0.2,0,0.4,0,0.4H311.3z M311.3,106.4h2c0-0.9-0.3-1.2-0.9-1.2 C311.8,105.1,311.4,105.4,311.3,106.4z"></path> <path class="st2" d="M316.9,105.8v3.8h-1.5v-5.2h1c0.2,0,0.4,0.1,0.4,0.6c0.3-0.3,0.8-0.7,1.5-0.7c0.1,0,0.2,0,0.3,0v1.1h-0.2 C317.7,105.4,317.2,105.6,316.9,105.8z"></path> <path class="st2" d="M285,121.1v-1.2h0.5c0.3,0.3,0.8,0.6,1.7,0.6c0.8,0,1.3-0.3,1.3-0.9c0-0.7-0.7-0.8-1.5-1.1 c-1.3-0.4-1.9-0.9-1.9-2.1c0-1.4,1-2,2.4-2c0.8,0,1.5,0.2,1.9,0.5v1.1h-0.5c-0.4-0.3-0.8-0.5-1.4-0.5c-0.8,0-1.2,0.2-1.2,0.8 s0.5,0.7,1.3,0.9c1.5,0.4,2.2,0.9,2.2,2.2c0,1.4-0.9,2.1-2.6,2.1C286.2,121.6,285.6,121.4,285,121.1z"></path> <path class="st2" d="M291.9,119.2c0.1,1,0.6,1.3,1.4,1.3c0.6,0,1-0.2,1.4-0.4h0.4v1c-0.4,0.2-1,0.5-2.1,0.5c-1.7,0-2.7-1-2.7-2.7 s1.1-2.7,2.6-2.7s2.4,0.8,2.4,2.6c0,0.2,0,0.4,0,0.4H291.9z M291.9,118.3h2c0-0.9-0.3-1.2-0.9-1.2 C292.5,117.1,292,117.3,291.9,118.3z"></path> <path class="st2" d="M297.6,117.8v3.8h-1.5v-5.2h1c0.2,0,0.4,0.1,0.4,0.6c0.3-0.3,0.8-0.7,1.5-0.7c0.1,0,0.2,0,0.3,0v1.1h-0.2 C298.4,117.4,297.9,117.6,297.6,117.8z"></path> <path class="st2" d="M299.8,116.6v-0.4h1.4l1.3,3.6l0,0l1.2-3.6h1.2v0.4l-1.8,4.9h-1.3L299.8,116.6z"></path> <path class="st2" d="M305.7,115.1c0-0.4,0.4-0.8,0.8-0.8s0.8,0.3,0.8,0.8c0,0.4-0.3,0.8-0.8,0.8 C306.1,115.9,305.7,115.6,305.7,115.1z M305.8,121.6v-5.2h0.9c0.5,0,0.5,0.2,0.5,1v4.3h-1.4V121.6z"></path> <path class="st2" d="M308,118.9c0-1.7,1.2-2.7,2.8-2.7c0.8,0,1.3,0.2,1.6,0.4v1.1h-0.6c-0.2-0.2-0.6-0.4-1-0.4 c-0.8,0-1.3,0.6-1.3,1.7c0,1.1,0.5,1.6,1.3,1.6c0.6,0,0.9-0.2,1.2-0.4h0.5v1c-0.3,0.2-0.9,0.5-1.7,0.5 C309.1,121.6,308,120.6,308,118.9z"></path> <path class="st2" d="M314.5,119.2c0.1,1,0.6,1.3,1.4,1.3c0.6,0,1-0.2,1.4-0.4h0.4v1c-0.4,0.2-1,0.5-2.1,0.5c-1.7,0-2.7-1-2.7-2.7 s1.1-2.7,2.6-2.7s2.4,0.8,2.4,2.6c0,0.2,0,0.4,0,0.4H314.5z M314.5,118.3h2c0-0.9-0.3-1.2-0.9-1.2S314.6,117.3,314.5,118.3z"></path> <path class="st2" d="M318.5,121.1v-1.1h0.5c0.2,0.2,0.7,0.4,1.3,0.4c0.6,0,0.9-0.2,0.9-0.5s-0.2-0.5-0.9-0.6 c-1.1-0.1-1.8-0.6-1.8-1.6c0-1.1,0.8-1.6,2.1-1.6c0.8,0,1.2,0.1,1.6,0.4v1.1h-0.4c-0.2-0.2-0.7-0.3-1.2-0.3c-0.6,0-0.8,0.2-0.8,0.5 s0.3,0.4,1,0.5c1.2,0.2,1.8,0.6,1.8,1.6s-0.7,1.7-2.2,1.7C319.4,121.6,318.9,121.4,318.5,121.1z"></path> </g> <g> <path class="st2" d="M9.8,109.8v-7h1.6v7H9.8z"></path> <path class="st2" d="M14,105.2c0.5-0.4,1.2-0.6,1.9-0.6c0.8,0,1.4,0.3,1.4,1.5v3.9h-1.5v-3.5c0-0.5-0.2-0.7-0.6-0.7 s-0.9,0.1-1.2,0.2v3.9h-1.5v-5.2h1C13.8,104.6,13.9,104.7,14,105.2z"></path> <path class="st2" d="M18.1,109.4v-1.1h0.5c0.2,0.2,0.7,0.4,1.3,0.4c0.6,0,0.9-0.2,0.9-0.5s-0.2-0.5-0.9-0.6 c-1.1-0.1-1.8-0.6-1.8-1.6c0-1.1,0.8-1.6,2.1-1.6c0.8,0,1.2,0.1,1.6,0.4v1.1h-0.4c-0.2-0.2-0.7-0.3-1.2-0.3c-0.6,0-0.8,0.2-0.8,0.5 s0.3,0.4,1,0.5c1.2,0.2,1.8,0.6,1.8,1.6s-0.7,1.7-2.2,1.7C19.1,109.9,18.5,109.7,18.1,109.4z"></path> <path class="st2" d="M22.5,104.6h0.6v-1.4h1.5v1.4h1.1v1h-1.1v2.7c0,0.5,0.2,0.6,0.7,0.6h0.4v0.9c-0.2,0.1-0.5,0.1-0.9,0.1 c-1,0-1.6-0.4-1.6-1.5v-2.9h-0.6v-0.9C22.6,104.5,22.5,104.5,22.5,104.6z"></path> <path class="st2" d="M27.9,105.9v3.8h-1.5v-5.2h1c0.2,0,0.4,0.1,0.4,0.6c0.3-0.3,0.8-0.7,1.5-0.7c0.1,0,0.2,0,0.3,0v1.1h-0.2 C28.7,105.7,28.2,105.9,27.9,105.9z"></path> <path class="st2" d="M33.7,108.6v-4h1.5v5.2h-1c-0.2,0-0.4-0.1-0.4-0.5c-0.5,0.3-1.2,0.6-1.8,0.6c-0.9,0-1.5-0.3-1.5-1.4v-3.9H32 v3.5c0,0.6,0.3,0.7,0.7,0.7C33,108.8,33.4,108.7,33.7,108.6z"></path> <path class="st2" d="M36,107.2c0-1.7,1.2-2.7,2.8-2.7c0.8,0,1.3,0.2,1.6,0.4v1.1h-0.6c-0.2-0.2-0.6-0.4-1-0.4 c-0.8,0-1.3,0.6-1.3,1.7c0,1.1,0.5,1.6,1.3,1.6c0.6,0,0.9-0.2,1.2-0.4h0.5v1c-0.3,0.2-0.9,0.5-1.7,0.5C37,109.9,36,108.9,36,107.2z "></path> <path class="st2" d="M41,104.6h0.6v-1.4H43v1.4h1.1v1H43v2.7c0,0.5,0.2,0.6,0.7,0.6h0.4v0.9c-0.2,0.1-0.5,0.1-0.9,0.1 c-1,0-1.6-0.4-1.6-1.5v-2.9H41V104.6z"></path> <path class="st2" d="M44.8,103.4c0-0.4,0.4-0.8,0.8-0.8s0.8,0.3,0.8,0.8c0,0.4-0.3,0.8-0.8,0.8S44.8,103.8,44.8,103.4z M44.9,109.8 v-5.2h0.9c0.5,0,0.5,0.2,0.5,1v4.3h-1.4V109.8z"></path> <path class="st2" d="M47.2,107.2c0-1.7,1.2-2.7,2.7-2.7s2.7,1,2.7,2.7s-1.2,2.7-2.7,2.7S47.2,108.9,47.2,107.2z M51,107.2 c0-1.1-0.5-1.7-1.2-1.7s-1.2,0.6-1.2,1.7c0,1.1,0.5,1.6,1.2,1.6S51,108.4,51,107.2z"></path> <path class="st2" d="M54.8,105.2c0.5-0.4,1.2-0.6,1.9-0.6c0.8,0,1.4,0.3,1.4,1.5v3.9h-1.5v-3.5c0-0.5-0.2-0.7-0.6-0.7 s-0.9,0.1-1.2,0.2v3.9h-1.5v-5.2h1C54.6,104.6,54.7,104.7,54.8,105.2z"></path> <path class="st2" d="M62.1,109.2c-0.4,0.4-0.9,0.6-1.5,0.6c-1,0-1.7-0.5-1.7-1.6c0-1.1,0.9-1.6,2.1-1.6c0.4,0,0.7,0,1,0.1v-0.5 c0-0.5-0.3-0.7-1-0.7c-0.5,0-1,0.2-1.4,0.4h-0.4v-1c0.5-0.2,1.1-0.4,2-0.4c1.4,0,2.2,0.5,2.2,1.7v3.6h-0.6 C62.4,109.8,62.2,109.7,62.1,109.2z M62,107.6c-0.2,0-0.5-0.1-0.7-0.1c-0.6,0-1,0.2-1,0.7s0.3,0.7,0.8,0.7c0.4,0,0.7-0.2,0.9-0.4 V107.6z"></path> <path class="st2" d="M64.5,109.8v-7h0.9c0.5,0,0.6,0.1,0.6,0.8v6.2H64.5z"></path> <path class="st2" d="M27.7,121.8v-5.9h-1.9v-1.1h5.4v1.1h-1.9v5.9H27.7z"></path> <path class="st2" d="M32.2,119.4c0.1,1,0.6,1.3,1.4,1.3c0.6,0,1-0.2,1.4-0.4h0.4v1c-0.4,0.2-1,0.5-2.1,0.5c-1.7,0-2.7-1-2.7-2.7 s1.1-2.7,2.6-2.7s2.4,0.8,2.4,2.6c0,0.2,0,0.4,0,0.4L32.2,119.4z M32.3,118.6h2c0-0.9-0.3-1.2-0.9-1.2 C32.8,117.4,32.4,117.6,32.3,118.6z"></path> <path class="st2" d="M39.4,121.2c-0.4,0.4-0.9,0.6-1.5,0.6c-1,0-1.7-0.5-1.7-1.6c0-1.1,0.9-1.6,2.1-1.6c0.4,0,0.7,0,1,0.1v-0.5 c0-0.5-0.3-0.7-1-0.7c-0.5,0-1,0.2-1.4,0.4h-0.4v-1c0.5-0.2,1.1-0.4,2-0.4c1.4,0,2.2,0.5,2.2,1.7v3.6h-0.6 C39.7,121.8,39.5,121.7,39.4,121.2z M39.3,119.4c-0.2,0-0.5-0.1-0.7-0.1c-0.6,0-1,0.2-1,0.7s0.3,0.7,0.8,0.7c0.4,0,0.7-0.2,0.9-0.4 V119.4z"></path> <path class="st2" d="M43.3,117.1c0.5-0.3,1.1-0.6,1.8-0.6c0.5,0,1,0.2,1.2,0.7c0.5-0.4,1.2-0.7,1.9-0.7s1.4,0.3,1.4,1.5v3.9h-1.5 v-3.5c0-0.5-0.2-0.7-0.6-0.7c-0.4,0-0.8,0.1-1.1,0.2v3.9H45v-3.5c0-0.5-0.2-0.7-0.6-0.7c-0.4,0-0.8,0.1-1.1,0.2v3.9h-1.5v-5.2h1 C43.1,116.6,43.2,116.7,43.3,117.1z"></path> </g> </svg> 