<?xml version="1.0" encoding="UTF-8"?> <!-- Generator: Adobe Illustrator 25.2.0, SVG Export Plug-In . SVG Version: 6.00 Build 0) --> <svg xmlns="http://www.w3.org/2000/svg" xmlns:xlink="http://www.w3.org/1999/xlink" version="1.1" id="Layer_1" x="0px" y="0px" width="300px" height="300px" viewBox="0 0 300 300" style="enable-background:new 0 0 300 300;" xml:space="preserve"> <style type="text/css"> .st0{fill:#0039A6;} </style> <g> <path class="st0" d="M281.7,120.4c2.1,9.5,3.3,19.4,3.3,29.6c0,74.6-60.4,135-135,135S15,224.6,15,150S75.4,15,150,15 c17.9,0,34.9,3.5,50.5,9.8V8.7C184.5,3,167.5,0,150,0C109.9,0,72.3,15.6,43.9,43.9C15.6,72.3,0,109.9,0,150s15.6,77.7,43.9,106.1 c28.3,28.3,66,43.9,106.1,43.9s77.7-15.6,106.1-43.9c28.3-28.3,43.9-66,43.9-106.1c0-10.1-1-20-2.9-29.6H281.7z"></path> <g> <path class="st0" d="M145.5,247.4C110.3,211,75.2,174.8,39.8,138.2c9.1-7.4,18-14.7,27.2-22.2c20.5,16.3,40.8,32.4,61.3,48.7 c45.8-54,97.7-100.4,157.9-138.3c2.3,5.2,4.4,10,6.5,14.9C231.5,101.2,181.6,168.8,145.5,247.4z"></path> </g> </g> </svg> 