<?xml version="1.0" encoding="UTF-8"?> <svg xmlns="http://www.w3.org/2000/svg" id="Layer_1" data-name="Layer 1" viewBox="0 0 128 128"><defs><style>.cls-1{opacity:0.2;}.cls-2{fill:#0039a6;}</style></defs><title>icon_4</title><path class="cls-1" d="M127.8,64.1A63.9,63.9,0,1,1,63.9.2h0a63.88,63.88,0,0,1,63.9,63.88Z"></path><path class="cls-2" d="M55,53.8c0,6,3.9,10.8,8.8,10.8s8.8-4.8,8.8-10.8S68.7,43,63.8,43,55,47.8,55,53.8Z"></path><path class="cls-2" d="M55.1,76l2.1-3.6-4.5-2.2L56.4,67v-.1c-1.4.1-2.8.2-4.3.4-.2,0-.3.1-.5.2h-.1a5.14,5.14,0,0,0-5.2,4.8l-.8,10.4a29.32,29.32,0,0,0,15.3,6.2v-.3Z"></path><path class="cls-2" d="M81.5,72.3a5,5,0,0,0-5.19-4.8H76a1.42,1.42,0,0,0-.6-.2c-1.4-.2-2.9-.3-4.3-.4V67l3.7,3.2-4.5,2.2L72.4,76,66.7,88.6v.3a29.13,29.13,0,0,0,15.5-6.4Z"></path><path class="cls-2" d="M65.8,70.8l.8-.7-1.1-4H62l-1.1,4,.8.7-.9,17.8v.3c1,.1,2,.2,3,.2s2-.1,3-.2v-.3Z"></path><path class="cls-2" d="M63.9,91.4A28.9,28.9,0,1,1,92.8,62.5,28.9,28.9,0,0,1,63.9,91.4Zm0-53.8A24.9,24.9,0,1,0,88.8,62.5h0A25,25,0,0,0,63.9,37.6Z"></path><path class="cls-2" d="M69.6,23.9a5.7,5.7,0,1,1-11.4,0h0a5.63,5.63,0,0,1,5.56-5.7h.14A5.7,5.7,0,0,1,69.6,23.9Z"></path><polygon class="cls-2" points="65.9 35.5 61.9 35.5 61.9 23.9 65.9 23.9 65.9 35.5"></polygon><path class="cls-2" d="M58.2,101.1a5.7,5.7,0,1,1,5.7,5.7h0A5.83,5.83,0,0,1,58.2,101.1Z"></path><polygon class="cls-2" points="65.9 101.1 61.9 101.1 61.9 89.4 65.9 89.4 65.9 101.1"></polygon><path class="cls-2" d="M102.5,68.1a5.7,5.7,0,1,1,5.7-5.7h0A5.76,5.76,0,0,1,102.5,68.1Z"></path><polygon class="cls-2" points="102.5 64.5 90.8 64.5 90.8 60.5 102.5 60.5 102.5 64.5"></polygon><path class="cls-2" d="M25.3,56.8a5.7,5.7,0,1,1-5.7,5.7,5.7,5.7,0,0,1,5.7-5.7Z"></path><polygon class="cls-2" points="37 64.5 25.3 64.5 25.3 60.5 37 60.5 37 64.5"></polygon><path class="cls-2" d="M95.2,39.2a5.66,5.66,0,1,1,0-8h0A5.67,5.67,0,0,1,95.2,39.2Z"></path><polygon class="cls-2" points="84.4 44.9 81.5 42 89.8 33.8 92.6 36.6 84.4 44.9"></polygon><path class="cls-2" d="M32.6,85.8a5.66,5.66,0,1,1,0,8h0A5.67,5.67,0,0,1,32.6,85.8Z"></path><polygon class="cls-2" points="38 91.2 35.2 88.3 43.4 80.1 46.3 82.9 38 91.2"></polygon><path class="cls-2" d="M87.2,93.8a5.66,5.66,0,1,1,8,0h0A5.67,5.67,0,0,1,87.2,93.8Z"></path><polygon class="cls-2" points="89.8 91.2 81.5 82.9 84.4 80.1 92.6 88.3 89.8 91.2"></polygon><path class="cls-2" d="M40.6,31.2a5.66,5.66,0,1,1-8,0h0A5.67,5.67,0,0,1,40.6,31.2Z"></path><polygon class="cls-2" points="43.4 44.9 35.2 36.6 38 33.8 46.3 42 43.4 44.9"></polygon></svg> 