<?xml version="1.0" encoding="UTF-8"?> <svg xmlns="http://www.w3.org/2000/svg" id="Layer_1" data-name="Layer 1" viewBox="0 0 128 128"><defs><style>.cls-1{opacity:0.2;}.cls-2{fill:#0039a6;}</style></defs><title>icon_3</title><path class="cls-1" d="M128,64A64,64,0,1,1,64,0,64,64,0,0,1,128,64Z"></path><path class="cls-2" d="M101.1,66.8H26.2V27.6h74.9ZM28.7,64.3h70V30h-70Z"></path><rect class="cls-2" x="22" y="24.5" width="83.3" height="9.4"></rect><path class="cls-2" d="M96.7,63.6h0l-.2-.3-.8-1.2-6.4-9.3c-.1-.2-1.2-1.4-1.6-1.4-1-.1-2-.1-3-.1v.1l2.2,1.7-2.5,1.4,1.3,2L81.2,67.6v.1h0v-.1L75.8,56.9l1.1-2.1-2.6-1.2,2.1-1.9v-.1a13.54,13.54,0,0,0-2.2.3s-5.5-.5-5.9-.5l-1.5-1-8.4-5.7c-1.3,1.9-2.5,3.9-3.7,6l8.8,5.1,8.9,1.9c0,6.9,0,13.9.2,20.8v.1c6.2-.3,12.4-.5,18.5-.8v-.1c-.1-1.1-.1-2.2-.2-3.3.7.4,1.4.7,2.1,1.1l4.1-8.4V67h0C96.8,65.4,97,70.2,96.7,63.6Zm-6.6,2.2a1.66,1.66,0,0,0-.1-.7l.2.4Z"></path><polygon class="cls-2" points="79.5 51.4 78.9 53.7 80.6 55 82.2 53.6 81.5 51.3 79.5 51.4"></polygon><polygon class="cls-2" points="79.4 53.9 79.3 67.7 81.2 69 83 67.5 81.7 53.9 79.4 53.9"></polygon><path class="cls-2" d="M76.4,42.1c-1.1,3.2.1,6.6,2.7,7.5s5.6-1,6.7-4.3-.1-6.6-2.7-7.5S77.5,38.8,76.4,42.1Z"></path><path class="cls-2" d="M34.7,92.6c2.7,0,4.9-2.7,4.9-6.1s-2.2-6.1-4.9-6.1-4.9,2.7-4.9,6.1S32,92.6,34.7,92.6Z"></path><path class="cls-2" d="M41.6,94.2a.37.37,0,0,0-.3-.1,57.39,57.39,0,0,0-13.1,0c-.1,0-.2.1-.3.1h0A2.79,2.79,0,0,0,25,96.88v0l-1,12.5H45.7l-1-12.5a2.79,2.79,0,0,0-2.88-2.7H41.6Z"></path><path class="cls-2" d="M60,92.6c2.7,0,4.9-2.7,4.9-6.1s-2.2-6.1-4.9-6.1-5,2.7-5,6.1S57.2,92.6,60,92.6Z"></path><path class="cls-2" d="M66.8,94.2a.37.37,0,0,0-.3-.1,57.39,57.39,0,0,0-13.1,0c-.1,0-.2.1-.3.1h0a2.79,2.79,0,0,0-2.9,2.68v0l-1,12.5H70.9l-1-12.5A2.79,2.79,0,0,0,67,94.2H66.8Z"></path><path class="cls-2" d="M85.2,92.6c2.7,0,4.9-2.7,4.9-6.1s-2.2-6.1-4.9-6.1-4.9,2.7-4.9,6.1S82.5,92.6,85.2,92.6Z"></path><path class="cls-2" d="M92.1,94.2a.37.37,0,0,0-.3-.1,57.39,57.39,0,0,0-13.1,0c-.1,0-.2.1-.3.1h0a2.79,2.79,0,0,0-2.9,2.68v0l-1,12.5H96.2l-1-12.5a2.79,2.79,0,0,0-2.88-2.7H92.1Z"></path><rect class="cls-2" x="40.3" y="49.9" width="5.3" height="9.6"></rect><rect class="cls-2" x="33.1" y="46.6" width="5.3" height="12.9"></rect><rect class="cls-2" x="47.5" y="40.9" width="5.3" height="18.6"></rect></svg> 