<?xml version="1.0" encoding="UTF-8"?> <svg xmlns="http://www.w3.org/2000/svg" id="Layer_1" data-name="Layer 1" viewBox="0 0 128 128"><defs><style>.cls-1{opacity:0.2;}.cls-2{fill:#0039a6;}</style></defs><title>icon_2</title><path class="cls-1" d="M128,64A64,64,0,1,1,64,0,64,64,0,0,1,128,64Z"></path><path class="cls-2" d="M50.5,30c4.3,0,7.8-4.3,7.8-9.7s-3.5-9.7-7.8-9.7-7.8,4.3-7.8,9.7S46.1,30,50.5,30Z"></path><path class="cls-2" d="M77.6,51.2c.1-3.2.4-8.2.4-7.2h0l-.2-.2-.9-.7L75,41.7l-3.8-2.8-7.5-5.6a5.23,5.23,0,0,0-2.6-1H61a24.23,24.23,0,0,0-3.8-.3v.1l3.4,2.8-4,2,1.9,3.2L53.4,51.4l-.8-15.6.7-.6-1-3.5H49.1l-1,3.5.7.6L48,51.4,42.9,40.1l1.9-3.2-4-2,3.4-2.8V32l-3.8.3c-.1,0-.2.1-.4.1a4.88,4.88,0,0,0-3.4,1.7L23.2,48.3l-.1.1h0c-1.3,11.3-.3,3.1-.6,5.7h0l.1.1.1.3.3.5.5,1.1,1.1,2.1,2.2,4.3,4.4,8.6c2-1,4-2,5.9-3.1,0,1.8-.1,3.7-.1,5.5v.2h1l1.2,37.5H49.9c.1-4.6.2-10.8.2-16.8a31.43,31.43,0,0,1-2.2-11.5A31.75,31.75,0,0,1,77.6,51.2Zm-14.3-4c0-.9-.1-1.7-.1-2.6l2.1,1.7,1,.8-9.4,5.5L56,51.3ZM37.2,59.7,36,57.5l-2.4-4.2-.7-1.2,4.8-5.8C37.5,50.8,37.3,55.3,37.2,59.7Z"></path><path class="cls-2" d="M51.7,98l.4,13.2H62.8v-1.4A32.39,32.39,0,0,1,51.7,98Z"></path><path class="cls-2" d="M79.6,54a28.9,28.9,0,1,0,28.9,28.9A28.9,28.9,0,0,0,79.6,54Zm2.6,52.2v-5.4a22.58,22.58,0,0,1-2.6.2,20.54,20.54,0,0,1-2.6-.2v5.4A23.39,23.39,0,0,1,56.3,85.6h5.4a24.52,24.52,0,0,1-.2-2.7,24.52,24.52,0,0,1,.2-2.7H56.3A23.39,23.39,0,0,1,77,59.6V65a22.58,22.58,0,0,1,2.6-.2,20.54,20.54,0,0,1,2.6.2V59.6a23.39,23.39,0,0,1,20.7,20.6H97.5a24.52,24.52,0,0,1,.2,2.7,24.52,24.52,0,0,1-.2,2.7h5.4A23.39,23.39,0,0,1,82.2,106.2Z"></path><path class="cls-2" d="M69.6,67.8A18.54,18.54,0,0,1,72,66.5L70.6,64a1.39,1.39,0,0,0-1.2-.7,1.94,1.94,0,0,0-.7.2,1.56,1.56,0,0,0-.6.8,2.06,2.06,0,0,0,.1,1.1Z"></path><path class="cls-2" d="M90.5,63.4a1.42,1.42,0,0,0-.7-.2,1.53,1.53,0,0,0-1.2.7l-1.4,2.5c.8.4,1.6.8,2.4,1.3L91,65.2a1.27,1.27,0,0,0-.41-1.75Z"></path><path class="cls-2" d="M98,73.5a1.56,1.56,0,0,0,.6-.8,1.41,1.41,0,0,0-.1-1.1,1.39,1.39,0,0,0-1.2-.7,1.94,1.94,0,0,0-.7.2l-2.2,1.3a18.55,18.55,0,0,1,1.4,2.4Z"></path><path class="cls-2" d="M61.9,70.9a1.53,1.53,0,0,0-1.2.7,1.37,1.37,0,0,0-.1,1.1,1.25,1.25,0,0,0,.6.8l2.2,1.3c.4-.8.9-1.6,1.4-2.4l-2.2-1.3A1.94,1.94,0,0,0,61.9,70.9Z"></path><path class="cls-2" d="M94.5,93.3l2.2,1.3a1.42,1.42,0,0,0,.7.2,1.53,1.53,0,0,0,1.2-.7,1.37,1.37,0,0,0,.1-1.1,1,1,0,0,0-.6-.8l-2.2-1.3C95.4,91.7,95,92.5,94.5,93.3Z"></path><path class="cls-2" d="M61.2,92.2a1.56,1.56,0,0,0-.6.8,1.41,1.41,0,0,0,.1,1.1,1.39,1.39,0,0,0,1.2.7,1.94,1.94,0,0,0,.7-.2l2.2-1.3c-.5-.8-1-1.6-1.4-2.4Z"></path><path class="cls-2" d="M89.6,98a18.54,18.54,0,0,1-2.4,1.3l1.4,2.5a1.39,1.39,0,0,0,1.2.7,1.94,1.94,0,0,0,.7-.2,1.44,1.44,0,0,0,.5-1.9Z"></path><path class="cls-2" d="M68.2,100.4a1.37,1.37,0,0,0-.1,1.1,1,1,0,0,0,.6.8,1.42,1.42,0,0,0,.7.2,1.53,1.53,0,0,0,1.2-.7L72,99.3c-.8-.4-1.6-.8-2.4-1.3Z"></path><path class="cls-2" d="M79.5,80.8A2.14,2.14,0,0,0,77.4,83v0a2.19,2.19,0,0,0,2.1,2.2A2.14,2.14,0,0,0,81.6,83v0a2.08,2.08,0,0,0-1.94-2.2Z"></path><path class="cls-2" d="M81.3,80.2l-.1-8.4A1.79,1.79,0,0,0,79.42,70h0a1.69,1.69,0,0,0-1.71,1.67,1.85,1.85,0,0,0,0,.23l.1,4.8-4.1-7.4a1.12,1.12,0,0,0-1.5-.4,1.23,1.23,0,0,0-.4,1.6l5.7,10.1a2.93,2.93,0,0,1,2.2-.9A2,2,0,0,1,81.3,80.2Z"></path></svg> 