<?xml version="1.0" encoding="UTF-8"?> <!-- Generator: Adobe Illustrator 22.1.0, SVG Export Plug-In . SVG Version: 6.00 Build 0) --> <svg xmlns="http://www.w3.org/2000/svg" xmlns:xlink="http://www.w3.org/1999/xlink" id="Layer_1" x="0px" y="0px" viewBox="0 0 128 128" style="enable-background:new 0 0 128 128;" xml:space="preserve"> <style type="text/css"> .st0{opacity:0.2;} .st1{fill:#0039a6;} </style> <path class="st0" d="M128,64c0,35.3-28.7,64-64,64S0,99.3,0,64S28.7,0,64,0C99.4,0,128,28.7,128,64z"></path> <g> <g> <path class="st1" d="M36,82.6l0.9,29h7.6c0.3-9.8,0-29,0-29S39.1,82.5,36,82.6z"></path> </g> <g> <path class="st1" d="M45.8,82.6l0.5,29h3.9c0.1-9.8,0-29,0-29S47.4,82.5,45.8,82.6z"></path> </g> <path class="st1" d="M46.7,44.6c1.5,3.5,0.3,7.4-2.5,8.6c-2.9,1.2-6.4-0.7-7.8-4.3c-1.5-3.5-0.3-7.4,2.5-8.6 C41.7,39.1,45.2,41,46.7,44.6z"></path> <g> <polygon class="st1" points="44.6,72.8 44.6,72.7 44.6,72.7 44.6,72.7 "></polygon> <path class="st1" d="M56.5,40.7l-2.4,10.8l-8,2.3c-0.1,0-0.2,0.1-0.4,0.2l1.6,2.2l-1.6,1.6l1,2.3l-2.2,12.7v0.1l0,0l0,0v-0.1 L40,60.6l0.6-2.4l-1.9-1.3l1.2-2.1c-1,0.1-4.7,0.7-5,0.8c-0.4,0.1-1.1,1.5-1.2,1.7l-6.3,12.5c-1.5,6.6-1.7,9.8-2.6,14.8 c2.6,0.4,5.2,0.8,7.8,1c0.4-4.2,1.2-10.3,1.2-12.9l0.7-1.6c0.3,4.6,0.5,9.3,0.9,13.9c0,0.1,0,0.1,0,0.2c5.4-0.4,10.8-0.9,16.2-1.3 c0-0.1,0-0.1,0-0.2c-0.7-8.1-1.6-16.1-2.5-24.2l4.3-0.9l4.3-0.9l0.2-0.1l2.6-2.5l0,0l0,0V55l0.1-0.3l0.2-0.7l3.3-11.3 C61.7,42,59.1,41.3,56.5,40.7z"></path> </g> <g> <polygon class="st1" points="43.6,54.1 44.3,56.6 43.3,58.3 42.1,56.8 42.3,54.2 "></polygon> <polygon class="st1" points="44,57 45.9,72.6 44.8,74.3 43.4,72.8 42.5,57.1 "></polygon> </g> <g> <path class="st1" d="M84.8,82.6l0.9,29h7.6c0.3-9.8,0-29,0-29S87.9,82.5,84.8,82.6z"></path> </g> <g> <path class="st1" d="M79.3,82.6l0.5,29h3.9c0.1-9.8,0-29,0-29S80.9,82.5,79.3,82.6z"></path> </g> <path class="st1" d="M82.8,44.6c-1.5,3.5-0.3,7.4,2.5,8.6c2.9,1.2,6.4-0.7,7.8-4.3c1.5-3.5,0.3-7.4-2.5-8.6 C87.7,39.1,84.2,41,82.8,44.6z"></path> <path class="st1" d="M103.1,68.1C103.1,68,103.1,68,103.1,68.1L103.1,68.1z"></path> <g> <path class="st1" d="M84.6,72.7L84.6,72.7L84.6,72.7z"></path> <path class="st1" d="M103.1,68.7l-0.6-1l-0.9-1.5l-1.9-3.1L95.9,57c-0.3-0.4-0.6-0.8-1-1.1c-0.1-0.2-0.3-0.3-0.5-0.3l0,0 c-0.4-0.2-2.9-0.6-5.7-0.8l1.1,2.4l-1.7,1.3l0.6,2.3l-4.1,12v0.1l0,0l0,0v-0.1l-2.1-12.5l0.9-2.2l-1.5-1.6l1.5-1.9v-0.1 c-0.3,0-0.6,0-0.9,0c-3.1-1.5-6.6-3.3-6.8-3.3l-6.9-11.3c-2.3,1.4-4.5,2.8-6.6,4.3l7.6,10.9c4.9,3.8,7.5,4.3,10.4,5.5 c-0.9,7.7-1.7,15.5-2.4,23.2c0,0.1,0,0.1,0,0.2c5.4,0.4,10.8,0.9,16.2,1.3c0-0.1,0-0.1,0-0.2c0-0.3,0-0.5,0.1-0.8 c0.9,0.4,1.7,0.9,2.6,1.3l6.3-12.9l0.2-0.4l0.1-0.1v-0.1l0,0l0,0C103.2,72.7,103.1,68.7,103.1,68.7z M94.7,72.8 c0.1-1.4,0.1-2.8,0.2-4.2l0.6,1.1l0.4,0.8L94.7,72.8z"></path> </g> <g> <polygon class="st1" points="85.5,54.6 84.9,57 85.8,58.7 87,57.2 86.8,54.7 "></polygon> <polygon class="st1" points="85.2,57.4 83.4,72.6 84.5,74.3 85.8,72.8 86.6,57.5 "></polygon> </g> <g> <path class="st1" d="M64.5,11.6c-0.6,0-1.2,0-1.9,0c-3.6,0-7.1,0-10.7,0c0.6-0.3-2.1,14.2,5,17.8c3.2,1.7,4.7,2.3,4.9,3.5 c0.3,1.7,0.3,2.3,0.3,2.3c0.4-0.3,0.9-0.7,1.4-1c0.5,0.3,1,0.7,1.4,1c0,0,0-0.6,0.3-2.3c0.2-1.2,1.6-1.8,4.9-3.5 c7.1-3.5,4.4-18.1,5-17.8C71.7,11.6,68.1,11.6,64.5,11.6z"></path> <path class="st1" d="M71.6,40.6c-1.4-0.4-3.4-1.3-3.4-1.9c0-0.6-1.9-1.3-2.3-2.5c-0.4-1.3-0.5-6.4-0.5-6.4l-1.8,0.8l-1.8-0.8 c0,0-0.1,5.2-0.5,6.4C60.9,37.4,59,38,59,38.6s-2,1.5-3.4,1.9s-1.4,0.6-1.4,1.3c0,0.6,18.9,0.6,18.9,0C73,41.2,73,40.9,71.6,40.6z "></path> <rect x="54.2" y="41.7" class="st1" width="18.9" height="2.8"></rect> <rect x="53.6" y="43.9" class="st1" width="20.1" height="1.5"></rect> <g> <g> <path class="st1" d="M58.7,27.4c-6.3,0-11.3-4-12.8-10.1c-0.4-1.5,0-2.5,0.4-3c0.9-1.1,2.4-1.2,2.8-1.2h0.1h14.6h10.7v1.2 c0,0.2,0,0.3,0,0.5c-0.4,9.3-7.8,12.6-14,12.6C59.8,27.4,59.2,27.4,58.7,27.4L58.7,27.4z M49.1,15.3c-0.4,0-0.9,0.1-1,0.3 s-0.1,0.6,0,1.1v0.1c1.2,5.1,5.4,8.4,10.6,8.4c0.5,0,1,0,1.4-0.1h0.1h0.1c5.1,0,11.1-2.6,11.7-9.8h-8.3H49.1L49.1,15.3 L49.1,15.3z"></path> </g> <g> <path class="st1" d="M68.6,27.4c-0.5,0-1.1,0-1.7-0.1c-6.2,0-13.6-3.3-14-12.6c0-0.1,0-0.3,0-0.5V13h10.7h14.6h0.1 c0.4,0,2,0.1,2.8,1.2c0.4,0.5,0.8,1.5,0.4,3C79.9,23.5,74.9,27.4,68.6,27.4L68.6,27.4z M67,25.1L67,25.1c0.5,0.1,1,0.1,1.5,0.1 c5.2,0,9.4-3.3,10.6-8.4v-0.1c0.1-0.5,0.1-0.9,0-1.1c-0.2-0.2-0.7-0.3-1-0.3H78H63.5h-8.3C55.9,22.5,61.9,25.1,67,25.1L67,25.1 L67,25.1z"></path> </g> </g> </g> </g> </svg> 