<?xml version="1.0" encoding="UTF-8"?> <svg xmlns="http://www.w3.org/2000/svg" id="Layer_1" data-name="Layer 1" viewBox="0 0 128 128"><defs><style>.cls-1{opacity:0.2;}.cls-2{fill:#0039a6;}</style></defs><title>icon_1</title><path class="cls-1" d="M128,64A64,64,0,1,1,64,0,64,64,0,0,1,128,64Z"></path><path class="cls-2" d="M31.2,75.8c0,5.4,3.6,9.8,8,9.8s7.9-4.4,7.9-9.8S43.5,66,39.2,66,31.2,70.4,31.2,75.8Z"></path><path class="cls-2" d="M31.3,96l1.9-3.2-4.1-2,3.4-2.9v-.1l-3.9.3c-.2,0-.3.1-.5.2H28a4.63,4.63,0,0,0-4.7,4.4l-.8,9.4a26.34,26.34,0,0,0,13.9,5.6v-.2Z"></path><path class="cls-2" d="M55.2,92.6a4.63,4.63,0,0,0-4.7-4.4h-.3c-.2-.1-.3-.2-.5-.2l-3.9-.3v.1l3.4,2.9-4.1,2L47,96l-5.2,11.4v.2a26.17,26.17,0,0,0,14.1-5.8Z"></path><path class="cls-2" d="M41,91.3l.8-.6-1-3.6H37.6l-1,3.6.8.6-.8,16.2v.2a24.37,24.37,0,0,0,2.7.1c.9,0,1.8-.1,2.7-.1v-.2Z"></path><path class="cls-2" d="M96.2,22.3H52.1a8.45,8.45,0,0,0-8.4,8.4V53.9a8.39,8.39,0,0,0,8.38,8.4h7L50.3,75.1,75.9,62.3H96.2a8.39,8.39,0,0,0,8.4-8.38V30.7a8.32,8.32,0,0,0-8.24-8.4ZM61.1,46.1a3.6,3.6,0,1,1,3.6-3.6h0a3.52,3.52,0,0,1-3.44,3.6Zm13.1,0a3.6,3.6,0,1,1,3.6-3.6h0a3.59,3.59,0,0,1-3.58,3.6Zm13,0a3.6,3.6,0,1,1,3.6-3.6h0a3.59,3.59,0,0,1-3.58,3.6Z"></path><path class="cls-2" d="M71.5,84.8c2.9,0,5.3-2.9,5.3-6.6s-2.4-6.6-5.3-6.6-5.3,3-5.3,6.6S68.5,84.8,71.5,84.8Z"></path><path class="cls-2" d="M71.5,96.8A23.13,23.13,0,0,0,82.6,94l-.4-4.6a3.25,3.25,0,0,0-3.2-3h-.2a.37.37,0,0,0-.3-.1,56.24,56.24,0,0,0-14.2,0c-.1,0-.2.1-.3.1h0a3.16,3.16,0,0,0-3.2,3L60.4,94A23.13,23.13,0,0,0,71.5,96.8Z"></path></svg> 